/* XPM */
static char *_1705485967[] = {
/* columns rows colors chars-per-pixel */
"10 14 3 1 ",
"  c #884B3F",
". c #45283C",
"X c white",
/* pixels */
"........  ",
"........  ",
"..XXXX..  ",
"..XXXX..  ",
"....XX..  ",
"....XX..  ",
"  ..XX..  ",
"  ..XX..  ",
"....XX....",
"....XX....",
"..XXXXXX..",
"..XXXXXX..",
"..........",
".........."
};
