/* XPM */
static char *board1705485960[] = {
/* columns rows colors chars-per-pixel */
"96 48 6 1 ",
"  c #46211B",
". c #663931",
"X c #224A3E",
"o c #696A6A",
"O c #884B3F",
"+ c #9BADB7",
/* pixels */
"oo++......OOOOOOOOOO......            ..OO......      ..    ..          ..OOOOOOOOOOOOOO..  oo++",
"oo++......OOOOOOOOOO......            ..OO......      ..    ..          ..OOOOOOOOOOOOOO..  oo++",
"XXoo++ooOOOOOOOOOOOOOOOOOO..      ....OOOOOOOOOO..  ..OOOOOOOO..      ..OOOOOOOOOOOOOOOOOOoo++oo",
"XXoo++ooOOOOOOOOOOOOOOOOOO..      ....OOOOOOOOOO..  ..OOOOOOOO..      ..OOOOOOOOOOOOOOOOOOoo++oo",
"    oo++  OOOOOOOOOOOOOOOOOO......OOOOOOOOOOOO..  ..OOOOOOOOOOOO......OOOOOOOOOOOOOOOO  ++++oo  ",
"    oo++  OOOOOOOOOOOOOOOOOO......OOOOOOOOOOOO..  ..OOOOOOOOOOOO......OOOOOOOOOOOOOOOO  ++++oo  ",
"..OO..  OOOOOOOOOOOOOOOOOOOOOO..OOOOOOOOOOOOOO..  ..OOOOOOOOOOOO..OOOOOOOOOOOOOOOOOOOOOO  oo....",
"..OO..  OOOOOOOOOOOOOOOOOOOOOO..OOOOOOOOOOOOOO..  ..OOOOOOOOOOOO..OOOOOOOOOOOOOOOOOOOOOO  oo....",
"....OOOOOOOOOOOOOOOOOOOOOOOOOO..OOOOOOOOOOOOOO..  OOOOOOOOOOOOOO..OOOOOOOOOOOOOOOOOOOOOOOOOOOO..",
"....OOOOOOOOOOOOOOOOOOOOOOOOOO..OOOOOOOOOOOOOO..  OOOOOOOOOOOOOO..OOOOOOOOOOOOOOOOOOOOOOOOOOOO..",
"  ..OOOOOOOOOOOOOOOOOOOOOOOOOO..OOOOOOOOOOOOOOOO..OOOOOOOOOOOOOO..OOOOOOOOOOOOOOOOOOOOOOOOOO..  ",
"  ..OOOOOOOOOOOOOOOOOOOOOOOOOO..OOOOOOOOOOOOOOOO..OOOOOOOOOOOOOO..OOOOOOOOOOOOOOOOOOOOOOOOOO..  ",
"  ..OOOOOOOOOOOOOOOOOOOOOOOOOO..OOOOOOOOOOOOOOOO..OOOOOOOOOOOO..  ..OOOOOOOOOOOOOOOOOOOOOOOOOO..",
"  ..OOOOOOOOOOOOOOOOOOOOOOOOOO..OOOOOOOOOOOOOOOO..OOOOOOOOOOOO..  ..OOOOOOOOOOOOOOOOOOOOOOOOOO..",
"  ..OOOOOOOOOOOOOOOOOOOOOOOOOO..OOOOOOOOOOOOOOOOOOOOOOOOOOOO..  ..OOOOOOOOOOOOOOOOOOOOOOOOOOOO..",
"  ..OOOOOOOOOOOOOOOOOOOOOOOOOO..OOOOOOOOOOOOOOOOOOOOOOOOOOOO..  ..OOOOOOOOOOOOOOOOOOOOOOOOOOOO..",
"..  ..OOOOOOOOOOOOOOOOOOOOOOOO..OOOOOOOOOOOOOOOOOOOOOOOOOO..  ..OOOOOOOOOOOOOOOOOOOOOOOOOOOOOO..",
"..  ..OOOOOOOOOOOOOOOOOOOOOOOO..OOOOOOOOOOOOOOOOOOOOOOOOOO..  ..OOOOOOOOOOOOOOOOOOOOOOOOOOOOOO..",
"..OO..OOOOOOOOOOOOOOOOOOOOOO....OOOOOOOOOOOOOOOOOOOOOOOOOOOO....OOOOOOOOOOOOOOOOOOOOOOOOOOOOOO..",
"..OO..OOOOOOOOOOOOOOOOOOOOOO....OOOOOOOOOOOOOOOOOOOOOOOOOOOO....OOOOOOOOOOOOOOOOOOOOOOOOOOOOOO..",
"..OOOO..OOOOOOOOOOOOOOOOOO..  ....OOOOOOOOOOOOOOOOOOOOOOOOOOOO..OOOOOOOOOOOOOOOOOOOOOOOOOOOOOO..",
"..OOOO..OOOOOOOOOOOOOOOOOO..  ..OOOOOOOOOOOOOOOOOOOOOOOOOOOOOO..OOOOOOOOOOOOOOOOOOOOOOOOOOOOOO..",
"  ..OOOOOOOOOOOOOOOOOOOOOOOO..  OOOOOOOOOOOOOOOOOOOOOOOOOOOOOOOO..OOOOOOOOOOOOOOOOOOOOOOOOOOOO..",
"  ..OOOOOOOOOOOOOOOOOOOOOOOO..  ..OOOOOOOOOOOOOOOOOOOOOOOOOOOOOO..OOOOOOOOOOOOOOOOOOOOOOOOOOOO..",
"....OOOOOOOOOOOOOOOOOOOOOOOO..  ..OOOOOOOOOOOOOOOOOOOOOOOOOOOOOO..OOOOOOOOOOOOOOOOOOOOOOOOOOOO..",
"....OOOOOOOOOOOOOOOOOOOOOOOO..  ..OOOOOOOOOOOOOOOOOOOOOOOOOOOOOO..OOOOOOOOOOOOOOOOOOOOOOOOOOOO..",
"..OOOOOOOOOOOOOOOOOOOOOOOOOO....OOOOOOOOOOOOOOOOOOOOOOOOOOOOOOOO..OOOOOOOOOOOOOOOOOOOOOOOOOOOO..",
"..OOOOOOOOOOOOOOOOOOOOOOOOOO....OOOOOOOOOOOOOOOOOOOOOOOOOOOOOOOO..OOOOOOOOOOOOOOOOOOOOOOOOOOOO..",
"..OOOOOOOOOOOOOOOOOOOOOOOOOOOO..OOOOOOOOOOOOOOOOOOOOOOOOOOOOOOOO..OOOOOOOOOOOOOOOOOOOOOOOOOO....",
"..OOOOOOOOOOOOOOOOOOOOOOOOOOOO..OOOOOOOOOOOOOOOOOOOOOOOOOOOOOOOO..OOOOOOOOOOOOOOOOOOOOOOOOOO....",
"..OOOOOOOOOOOOOOOOOOOOOOOOOOOO..OOOOOOOOOOOOOOOOOOOOOOOOOOOOOOOO..OOOOOOOOOOOOOOOOOOOOOOOOOOOO..",
"..OOOOOOOOOOOOOOOOOOOOOOOOOOOO..OOOOOOOOOOOOOOOOOOOOOOOOOOOOOOOO..OOOOOOOOOOOOOOOOOOOOOOOOOOOO..",
"....OOOOOOOOOOOOOOOOOOOOOOOOOO..OOOOOOOOOOOOOOOOOOOOOOOOOOOO......OOOOOOOOOOOOOOOOOOOOOOOOOOOO..",
"....OOOOOOOOOOOOOOOOOOOOOOOOOO..OOOOOOOOOOOOOOOOOOOOOOOOOOOO......OOOOOOOOOOOOOOOOOOOOOOOOOOOO..",
"  ..OOOOOOOOOOOOOOOOOOOOOOOO....OOOOOOOOOOOOOOOOOOOOOOOOOOOOOO....OOOOOOOOOOOOOOOOOOOOOOOOOOOO..",
"  ..OOOOOOOOOOOOOOOOOOOOOOOO....OOOOOOOOOOOOOOOOOOOOOOOOOOOOOO....OOOOOOOOOOOOOOOOOOOOOOOOOOOO..",
"..  ..OOOOOOOOOOOOOOOOOOOOOO....OOOOOOOOOOOOOOOOOOOOOOOOOOOOOO..OOOOOOOOOOOOOOOOOOOOOOOOOOOOOO..",
"..  ..OOOOOOOOOOOOOOOOOOOOOO....OOOOOOOOOOOOOOOOOOOOOOOOOOOOOO..OOOOOOOOOOOOOOOOOOOOOOOOOOOOOO..",
"....OOOOOOOOOOOOOOOOOOOOOOOOOO..OOOOOOOOOOOOOOOOOOOOOOOOOOOOOO..OOOOOOOOOOOOOOOOOOOOOOOOOOOOOO..",
"....OOOOOOOOOOOOOOOOOOOOOOOOOO..OOOOOOOOOOOOOOOOOOOOOOOOOOOOOO..OOOOOOOOOOOOOOOOOOOOOOOOOOOOOO..",
"  OOOOOOOOOOOOOOOOOOOOOOOOOOOO..OOOOOOOOOO....OOOOOOOOOOOOOOOO..OOOOOOOOOOOOOOOOOOOOOOOOOOOOOO..",
"  OOOOOOOOOOOOOOOOOOOOOOOOOOOO..OOOOOOOOOO....OOOOOOOOOOOOOOOO..OOOOOOOOOOOOOOOOOOOOOOOOOOOOOO..",
"XX..OOOOOOOOOOOOOOOOOOOOOOOO....OOOOOOOOOO  ..OOOOOOOOOOOOOOOO..OOOOOOOOOOOOOO..OOOOOOOOOOOO..XX",
"XX..OOOOOOOOOOOOOOOOOOOOOOOO....OOOOOOOOOO  ..OOOOOOOOOOOOOOOO..OOOOOOOOOOOOOO..OOOOOOOOOOOO..XX",
"XX  ..OOOOOOOOOOOOOOOOOOOO..    ..OOOOOOOO..  ..OOOOOOOOOOOO..  ..OOOOOOOOOO..  OOOOOOOOOO..  XX",
"XX  ..OOOOOOOOOOOOOOOOOOOO..    ..OOOOOOOO..  ..OOOOOOOOOOOO..  ..OOOOOOOOOO..  OOOOOOOOOO..  XX",
"XXXX  ....OOOOOOOOOOOO....        ..OOOO..  ..OOOOOOOOOOOO..  XX  ..OOOOOO..  ..OOOOOO....  XXXX",
"XXXX  ....OOOOOOOOOOOO....        ..OOOO..  ..OOOOOOOOOOOO..  XX  ..OOOOOO..  ..OOOOOO....  XXXX"
};
