/* XPM */
static char *colon1705485962[] = {
/* columns rows colors chars-per-pixel */
"6 12 3 1 ",
"  c #884B3F",
". c #45283C",
"X c white",
/* pixels */
"......",
"......",
"..XX..",
"..XX..",
"......",
"......",
"......",
"......",
"..XX..",
"..XX..",
"......",
"......"
};
