/* XPM */
static char *V1705485967[] = {
/* columns rows colors chars-per-pixel */
"10 14 3 1 ",
"  c #884B3F",
". c #45283C",
"X c white",
/* pixels */
"..........",
"..........",
"..XX..XX..",
"..XX..XX..",
"..XX..XX..",
"..XX..XX..",
"..XX..XX..",
"..XX..XX..",
"..XX..XX..",
"..XX..XX..",
"....XX....",
"....XX....",
"  ......  ",
"  ......  "
};
