/* XPM */
static char *down_slime1705485962[] = {
/* columns rows colors chars-per-pixel */
"32 32 15 1 ",
"  c black",
". c #2E7257",
"X c #2E7358",
"o c #307256",
"O c #307559",
"+ c #317A58",
"@ c #307B5E",
"# c #37865A",
"$ c #34825C",
"% c #35835C",
"& c #38885B",
"* c #731a39",
"= c #d93b50",
"- c #5121cc",
"; c #E1FBC3",
/* pixels */
"@@@@@@&&@@@@@@@@@@@@@@@@@@@@@@@@",
"@@@@@@&&@@@@@@@@@@@@@@@@@@@@@@@@",
"@@@@@@@@XX@@@@@@@@@@%%@@@@oo%%@@",
"@@@@@@@@XX@@@@@@@@@@%%@@@@oo%%@@",
"@@@@##@@@@@@@@@@@@..@@@@@@@@OO@@",
"@@@@##@@@@@@@@@@@@..@@@@@@@@OO@@",
"@@XX@@@@@@@@@@@@@@@@@@@@@@%%@@@@",
"@@XX@@@@@@@@@@@@@@@@@@@@@@%%@@@@",
"@@@@@@@@@@@@@@@@@@%%@@@@@@@@@@@@",
"@@@@@@@@@@@@@@@@@@%%@@@@@@@@@@@@",
"@@@@@@@@@@@@@@@@@@@@%%@@@@@@@@@@",
"@@@@@@@@@@@@@@@@@@@@$$@@@@@@@@@@",
"@@@@##@@                @@@@@@@@",
"@@@@##@@                @@@@@@@@",
"@@@@@@  ================  @@@@@@",
"@@@@@@  ================  @@@@@@",
"@@++  ================;;==  @@@@",
"@@++  ================;;==  @@@@",
"@@  ================;;======  @@",
"@@  ================;;======  @@",
"  **==========================  ",
"  **==========================  ",
"  ========================**==  ",
"  ========================**==  ",
"  ======    ========    ======  ",
"  ======    ========    ======  ",
"  **==--================--==**  ",
"  **==--================--==**  ",
"@@  ****================****  @@",
"@@  ****================****  @@",
"@@@@                        @@@@",
"@@@@                        @@@@"
};
