/* XPM */
static char *bottom_cwall1705485960[] = {
/* columns rows colors chars-per-pixel */
"32 32 8 1 ",
"  c #0D301D",
". c #224A29",
"X c #224A3E",
"o c #275832",
"O c #336046",
"+ c #307B5E",
"@ c #4A7C45",
"# c #72AE63",
/* pixels */
"XXXXXXXXXXXX..XXXXXXXXXXXXXXXXXX",
"XXXXXXXXXXXX..XXXXXXXXXXXXXXXXXX",
"XXXXXXXXXXXXXXXXXXXXXXXXXXXXXXXX",
"XXXXXXXXXXXXXXXXXXXXXXXXXXXXXXXX",
"XXXXXXXXOOXXXXXXOOXXXXXXOOXXXXXX",
"XXXXXXXXOOXXXXXXOOXXXXXXOOXXXXXX",
"XXXXXXOOXXXXXXXXXXXXXXXXXXXXXXXX",
"XXXXXXOOXXXXXXXXXXXXXXXXXXXXXXXX",
"XXXXXXXXXXXXXXXXXXXXOOXXXXXXOOXX",
"XXXXXXXXXXXXXXXXXXXXOOXXXXXXOOXX",
"XXXXXXXXXXXXOOXXXXXXXXXXXXXXXXXX",
"XXXXXXXXXXXXOOXXXXXXXXXXXXXXXXXX",
"XXXXXXXXXXXXXXXXXXXXXXXXXXXXXXXX",
"XXXXXXXXXXXXXXXXXXXXXXXXXXXXXXXX",
"XXOOXXXXXXXXXXXXXXXXXX..XXXXXXXX",
"XXOOXXXXXXXXXXXXXXXXXX..XXXXXXXX",
"XXXXXXXXXXXXXXXXXXXXXXXXXXXXXXOO",
"XXXXXXXXXXXXXXXXXXXXXXXXXXXXXXOO",
"XXXXXXXXXXXXXXOOXXXXXXXXXXXXXXXX",
"XXXXXXXXXXXXXXOOXXXXXXXXXXXXXXXX",
"XXXXXXXXXXXXXXXXXXXXXXXXXXXXXX@@",
"XXXXXXXXXXXXXXXXXXXXXXXXXXXXXX@@",
"XXXXXXXXXXXXXXXXOOXXXXXXXXXXXXXX",
"XXXXXXXXXXXXXXXXOOXXXXXXXXXXXXXX",
"OOXX..XXXXXXXXXXooOOXXXX@@OOOOOO",
"OOXX..XXXXXXXXXXooOOXXXX@@OOOOOO",
"..  XXXXXX@@XXOOOOXX..XXXX##  ##",
"..  XXXXXX@@XXOOOOXX..XXXX##  ##",
"XXOO  ##..XX@@  @@@@XX@@OOXXOO++",
"XXOO  ##..XX@@  @@@@XX@@OOXXOO++",
"++OO++@@XX    ++OO##@@  ++OO++##",
"++OO++@@XX    ++OO##@@  ++OO++##"
};
