/* XPM */
static char *bottom_wall1705485961[] = {
/* columns rows colors chars-per-pixel */
"32 32 8 1 ",
"  c #0D301D",
". c #224A29",
"X c #224A3E",
"o c #275832",
"O c #336046",
"+ c #307B5E",
"@ c #4A7C45",
"# c #72AE63",
/* pixels */
"XX@@XXXXXXXX..XXXXXXXXXXOOXX..XX",
"XX@@XXXXXXXX..XXXXXXXXXXOOXX..XX",
"  XXOOXXXXXXXXXXXXXXXXXXXX@@##@@",
"  XXOOXXXXXXXXXXXXXXXXXXXX@@##@@",
"@@  OOXXXXXXXXXXOOXXXXXXOO..@@oo",
"@@  OOXXXXXXXXXXOOXXXXXXOO..@@oo",
"##XX@@XXXXXXXXXXXXOOXXXXXXOO..  ",
"##XX@@XXXXXXXXXXXXOOXXXXXXOO..  ",
"XX##oo@@XXXXXXOOXXXXOOXXOOXX@@##",
"XX##oo@@XXXXXXOOXXXXOOXXOOXX@@##",
"XX  XXOOXXXXOOXXXXXXXXXX@@XX@@XX",
"XX  XXOOXXXXOOXXXXXXXXXX@@XX@@XX",
"++OOXX@@XXXXXXXXXXXXXXXX@@OOXX++",
"++OOXX@@XXXXXXXXXXXXXXXX@@OOXX++",
"++@@@@XXOOXXXXXXXXXXOO..XX##OOXX",
"++@@@@XXOOXXXXXXXXXXOO..XX##OOXX",
"++XXOO@@XXOOXXXXXXXX..oo@@@@  OO",
"++XXOO@@XXOOXXXXXXXX..oo@@@@  OO",
"##  ##XXOO..OOXXXXOOXXXXXX@@XX++",
"##  ##XXOO..OOXXXXOOXXXXXX@@XX++",
"++XXOO@@ooXXXXOOXXXXXXOOXXXX  @@",
"++XXOO@@ooXXXXOOXXXXXXOOXXXX  @@",
"OO@@@@OOXXOOXXXXOOXXXXXXOO@@@@XX",
"OO@@@@OOXXOOXXXXOOXXXXXXOO@@@@XX",
"  OOXXXXXXXXXXOOoo..XXXX@@OO@@++",
"  OOXXXXXXXXXXOOoo..XXXX@@OO@@++",
"++  XXOOXX@@XXXXXXOO..XXXX##  ##",
"++  XXOOXX@@XXXXXXOO..XXXX##  ##",
"@@OO  ##@@XX@@  @@@@XX@@OOXXOO++",
"@@OO  ##@@XX@@  @@@@XX@@OOXXOO++",
"++OO++@@XX    ++OO##@@@@++OO++##",
"++OO++@@XX    ++OO##@@@@++OO++##"
};
