/* XPM */
static char *bottomright_cwall1705485961[] = {
/* columns rows colors chars-per-pixel */
"32 32 7 1 ",
"  c #0D301D",
". c #224A29",
"X c #224A3E",
"o c #336046",
"O c #307B5E",
"+ c #4A7C45",
"@ c #72AE63",
/* pixels */
"XXXXXXXXXXXXXXXXXXXXXXXXXXXX  ++",
"XXXXXXXXXXXXXXXXXXXXXXXXXXXX  ++",
"XXXXXXXXXXXXXXXXXXXXXXXXXXXX  OO",
"XXXXXXXXXXXXXXXXXXXXXXXXXXXX  OO",
"XXXXXXXXXXXXXXXXXXXXXXXXXX  XX++",
"XXXXXXXXXXXXXXXXXXXXXXXXXX  XX++",
"XXXXXXXXXXXXXXXXooXXXXoooo  XX@@",
"XXXXXXXXXXXXXXXXooXXXXoooo  XX@@",
"XXXXXXXXXXXXXXXXXXXXXXXX++++  OO",
"XXXXXXXXXXXXXXXXXXXXXXXX++++  OO",
"XXooXXXXXXXXXXXXXXXXXXXXXXXX++OO",
"XXooXXXXXXXXXXXXXXXXXXXXXXXX++OO",
"XXXXXXXXXXXXXXXXXXXXXXXXoo@@XX  ",
"XXXXXXXXXXXXXXXXXXXXXXXXoo@@XX  ",
"XXXXXXXXooXXXXXXXXXXXXXXooXX++XX",
"XXXXXXXXooXXXXXXXXXXXXXXooXX++XX",
"ooXXXXXXXXXXooooXXXXXXXXoo@@XX  ",
"ooXXXXXXXXXXooooXXXXXXXXoo@@XX  ",
"XXXXXXooXXXXXXXXXXXXooXXooXX++XX",
"XXXXXXooXXXXXXXXXXXXooXXooXX++XX",
"ooXXXXXXXXooXXXXXXXXXXXX++ooooOO",
"ooXXXXXXXXooXXXXXXXXXXXX++ooooOO",
"XXooXXXXXXoo@@XXXXooooXX++  ..  ",
"XXooXXXXXXoo@@XXXXooooXX++  ..  ",
"ooXXoo++XXooooooXX@@XXoo@@XX  OO",
"ooXXoo++XXooooooXX@@XXoo@@XX  OO",
"oo++XXoo++oo++XX@@++XXXX..ooXXOO",
"oo++XXoo++oo++XX@@++XXXX..ooXXOO",
"XX++ooXXXXoo  ++XXXX  oo  ..@@OO",
"XX++ooXXXXoo  ++XXXX  oo  ..@@OO",
"XXOO  @@    OOOO  ++OO  ++  OOOO",
"XXOO  @@    OOOO  ++OO  ++  OOOO"
};
