/* XPM */
static char *hori_wall1705485963[] = {
/* columns rows colors chars-per-pixel */
"32 32 9 1 ",
"  c #0D301D",
". c #224A29",
"X c #224A3E",
"o c #275832",
"O c #305C3E",
"+ c #336046",
"@ c #307B5E",
"# c #4A7C45",
"$ c #72AE63",
/* pixels */
"$$@@++  @@$$##@@++@@XXXX$$##  XX",
"$$@@++  @@$$##@@++@@XXXX$$##  XX",
"++##  $$  ++++  ##++  $$XX  XX##",
"++##  $$  ++++  ##++  $$XX  XX##",
"XX++XX########++++XXXXoo##++++XX",
"XX++XX########++++XXXXoo##++++XX",
"XX++XX++++++XX++++##++##XXXXXXXX",
"XX++XX++++++XX++++##++##XXXXXXXX",
"XXXXXX++XXXXXXXXXXXXXXXXXXXXXXXX",
"XXXXXX++XXXXXXXXXXXXXXXXXXXXXXXX",
"XXXXXXXXXX++XX++XXXXXXXXXXXXXXXX",
"XXXXXXXXXX++XX++XXXXXXXXXXXXXXXX",
"XXXXXXXXXXXXXXXXXXXX++XXXXXXXX..",
"XXXXXXXXXXXXXXXXXXXX++XXXXXXXX..",
"XXXXXXXX++XXXXXXXXXXXX++XXXXXXXX",
"XXXXXXXX++XXXXXXXXXXXX++XXXXXXXX",
"XXXXXX++XXXXXXXX++XXXXXXXX++XXXX",
"XXXXXX++XXXXXXXX++XXXXXXXX++XXXX",
"XXXXXXXXXXXXXXXXXXXXXXXX++XXXXXX",
"XXXXXXXXXXXXXXXXXXXXXXXX++XXXXXX",
"XXXXXXXXXXXX++XXXXXXXX++XXXXXXXX",
"XXXXXXXXXXXX++XXXXXXXX++XXXXXXXX",
"XXXXXX++XXXXXXXX++XXXXXXXXXXXXXX",
"XXXXXX++XXXXXXXX++XXXXXXXXXXXXXX",
"++XXXXXX++++XXXXXX####++XX++XX++",
"++XXXXXX++++XXXXXX####++XX++XX++",
"XX++XX##XXXX######++XXXX++..##XX",
"XX++XX##XXXX######++XXXX++..##XX",
"##++##XX++##OO##++XX####..##$$..",
"##++##XX++##OO##++XX####..##$$..",
"##$$      $$$$@@@@@@XX$$  oo##XX",
"##$$      $$$$@@@@@@XX$$  oo##XX"
};
