/* XPM */
static char *top_cwall1705485966[] = {
/* columns rows colors chars-per-pixel */
"32 32 13 1 ",
"  c #0D301D",
". c #224A29",
"X c #224A3E",
"o c #275832",
"O c #2F5C3F",
"+ c #35613F",
"@ c #2A5542",
"# c #336046",
"$ c #3C6B40",
"% c #3C6B42",
"& c #307B5E",
"* c #4A7C45",
"= c #72AE63",
/* pixels */
"&&XX**==  ==##  **&&==##  $=====",
"&&XX**==  ==##  **&&==##  +=====",
"**##**XX==XXXX##**==##**%+==   .",
"**##**XX==XXXX##**==##**+%==  ..",
"XXXXXX##oo%%XX##++**OO****##o$oX",
"XXXXXX##oo%%XX##++**OO****#$+$XX",
"##XX**XX##XX##XXXXXX##XX##$$XXXX",
"##XX**XX##XX##XXXXXX##XX##$+XXXX",
"XXXXXX##XXXXXX##XX@@XXXX##XXXXXX",
"XXXXXX##XXXXXX##XX@@XXXX##XXXXXX",
"##XX**XXXXXXXXXXXXXX##XXXXXXXXXX",
"##XX**XXXXXXXXXXXXXX##XXXXXXXXXX",
"XXXXXXXXXXXX##XX##XXXXXXXX##XXXX",
"XXXXXXXXXXXX##XX##XXXXXXXX##XXXX",
"XX######XXXXXXXX##XXXX##XXXX##XX",
"XX######XXXXXXXX##XXXX##XXXX##XX",
"XXXXXXXXXXXXXXXXXXXXXXXXXXXXXXXX",
"XXXXXXXXXXXXXXXXXXXXXXXXXXXXXXXX",
"XXXXXXXXXXXXXXXXXXXXXXXXXXXXXXXX",
"XXXXXXXXXXXXXXXXXXXXXXXXXXXXXXXX",
"XXXXXXXXXXXXXXXXXXXXXXXXXXXX##XX",
"XXXXXXXXXXXXXXXXXXXXXXXXXXXX##XX",
"XXXXXXXXXXXXXX##XXXXXXXXXXXXXXXX",
"XXXXXXXXXXXXXX##XXXXXXXXXXXXXXXX",
"XXXXXXXX##XXXXXX##XXXXXX##XXXXXX",
"XXXXXXXX##XXXXXX##XXXXXX##XXXXXX",
"XXXXXXXXXXXXXXXXXXXXXXXXXXXXXXXX",
"XXXXXXXXXXXXXXXXXXXXXXXXXXXXXXXX",
"XXXXXX##XXXXXXXXXXXXXXXX##XXXXXX",
"XXXXXX##XXXXXXXXXXXXXXXX##XXXXXX",
"XXXXXXXXXXXXXXXXXXXXXXXXXXXXXXXX",
"XXXXXXXXXXXXXXXXXXXXXXXXXXXXXXXX"
};
