/* XPM */
static char *top_wall1705485966[] = {
/* columns rows colors chars-per-pixel */
"32 32 11 1 ",
"  c #0D301D",
". c #224A3E",
"X c #2F5C3F",
"o c #35623D",
"O c #2A5542",
"+ c #336046",
"@ c #3C6B40",
"# c #3C6B42",
"$ c #307B5E",
"% c #4A7C45",
"& c #72AE63",
/* pixels */
"$$$$%%&&++&&++  %%$$&&++  %%&&&&",
"$$$$%%&&OO&&++  %%$$&&++  o&&&&&",
"$$    %%%%.OO.O+%%&&++%%o@&&  $$",
"$$    %%%%.OO.O+%%&&++%%o@&&  $$",
"$$&&++++@@@@..+++o%%+X%%%%++o@..",
"$$&&++++@@@@..+++o%%XX%%%%+oo@..",
"  ++%%..++..++..++++++..++@@..$$",
"  ++%%..++..++..++++++..++@@..$$",
"&&  ..++......++++OX....++%%%%$$",
"&&  ..++......++++OX....++%%%%$$",
"  %%%%..............++....&&..  ",
"  %%%%..............++....&&..  ",
"++  ++%%....++..++........++&&  ",
"++  ++%%....++..++........++&&  ",
"++%%++++........++..++++..%%++$$",
"++%%++++........++..++++..%%++$$",
"$$  ++++..++++++..........%%%%$$",
"$$  ++++..++++++..........%%%%$$",
"%%++%%..............++....%%oo&&",
"%%++%%..............++....%%oX&&",
"&&++%%++..++............++..%%&&",
"&&++%%++..++............++..%%&&",
"$$  %%++......++........++..++  ",
"$$  %%++......++........++..++  ",
"  &&%%++++......++....++..%%..  ",
"  &&%%++++......++....++..%%..  ",
"++  ........................%%  ",
"++  ........................%%  ",
"$$%%++++..................++++&&",
"$$%%++++..................++++&&",
"&&++....................++..%%%%",
"&&++....................++..%%%%"
};
