/* XPM */
static char *topleft_cwall1705485966[] = {
/* columns rows colors chars-per-pixel */
"32 32 11 1 ",
"  c #0D301D",
". c #224A29",
"X c #224A3E",
"o c #2F5C3F",
"O c #2A5542",
"+ c #336046",
"@ c #3C6B40",
"# c #3C6B42",
"$ c #307B5E",
"% c #4A7C45",
"& c #72AE63",
/* pixels */
"&&$$%%&&++&&++  &&++  %%&&&&  ++",
"&&$$%%&&OO&&++  &&++  %%&&&&  ++",
"$$    %%%%XOOXO+++%%@@&&  ++&&..",
"$$    %%%%XOOXO+++%%@@&&  ++&&..",
"$$&&++++@@@@XX++++%%%%++@@XXXX++",
"$$&&++++@@@@XX++oo%%%%++@@XXXX++",
"  ++XXXX++XX++XX++XX++XX++XX++++",
"  ++XXXX++XX++XX++XX++XX++XX++++",
"&&  XX++XXXXXX++++++XXXX%%++++OO",
"&&  XX++XXXXXX++++++XXXX%%++++OO",
"  %%%%XXXXXXXXXXXXXXXXXXXXXXXXXX",
"  %%%%XXXXXXXXXXXXXXXXXXXXXXXXXX",
"++  ++XXXXXX++XX++XXXXXX++XXXXXX",
"++  ++XXXXXX++XX++XXXXXX++XXXXXX",
"++%%++++XXXXXXXXXX++XXXXXXXXXXXX",
"++%%++++XXXXXXXXXX++XXXXXXXXXXXX",
"$$  ++++XX++++XXXXXXXXXX++XXXXXX",
"$$  ++++XX++++XXXXXXXXXX++XXXXXX",
"%%++%%XXXXXXXXXXXXXXXXXXXXXXXXXX",
"%%++%%XXXXXXXXXXXXXXXXXXXXXXXXXX",
"&&++%%++XX++XXXXXX++XXXXXXXXXXXX",
"&&++%%++XX++XXXXXX++XXXXXXXXXXXX",
"$$  %%++XXXXXX++XXXXXXXXXX++XXXX",
"$$  %%++XXXXXX++XXXXXXXXXX++XXXX",
"  &&XXXXXXXXXXXXXXXXXXXXXXXXXXXX",
"  &&XXXXXXXXXXXXXXXXXXXXXXXXXXXX",
"++XXXXXXXXXXXXXXXXXXXXXXXXXXXXXX",
"++XXXXXXXXXXXXXXXXXXXXXXXXXXXXXX",
"$$++XXXXXXXXXXXXXXXXXXXXXXXXXXXX",
"$$++XXXXXXXXXXXXXXXXXXXXXXXXXXXX",
"XX  XXXXXXXXXXXXXXXXXXXXXXXXXXXX",
"XX  XXXXXXXXXXXXXXXXXXXXXXXXXXXX"
};
