/* XPM */
static char *exit1705575591[] = {
/* columns rows colors chars-per-pixel */
"32 32 16 1 ",
"  c #46211B",
". c #582E26",
"X c #663931",
"o c #336046",
"O c #2E7257",
"+ c #2E7358",
"@ c #307256",
"# c #307559",
"$ c #307B5E",
"% c #696A6A",
"& c #884B3F",
"* c #37865A",
"= c #33805D",
"- c #35835C",
"; c #38885B",
": c #9BADB7",
/* pixels */
"$$$$$$;;$$$$$$$$$$$$$$$$$$$$$$$$",
"$$$$$$;;$$$$$$$$$$$$$$$$$$$$$$$$",
"$$$$$$$$oooooooooooooooo$$@@--$$",
"$$$$$$$$oooooooooooooooo$$@@--$$",
"$$$$**oo                oo$$##$$",
"$$$$**oo                oo$$##$$",
"$$++oo  &&..&&XX&&XX&&..  oo$$$$",
"$$++oo  &&..&&XX&&XX&&..  oo$$$$",
"$$oo  ..&&XX&&XX&&XXXX&&..  oo$$",
"$$oo  ..&&XX&&XX&&XXXX&&..  oo$$",
"$$oo%%::&&XXXXXX&&XXXXXX&&  oo$$",
"$$oo%%::&&XXXXXX&&XXXXXX&&  oo$$",
"$$oo  ..XXXX&&XX&&XX&&XX&&  oo$$",
"$$oo  ..XXXX&&XX&&XX&&XX&&  oo$$",
"$$oo  ..XXXX&&XX&&XXXXXX..  oo$$",
"$$oo  ..XXXX&&XX&&XXXXXX..  oo$$",
"$$oo  ..&&XX&&XXXXXX::%%&&  oo$$",
"$$oo  ..&&XX&&XXXXXX::%%&&  oo$$",
"$$oo  ..&&XX&&XX&&XXXXXX..  oo$$",
"$$oo  ..&&XX&&XX&&XXXXXX..  oo$$",
"$$oo%%::&&XX&&XXXXXX&&XX..  oo$$",
"$$oo%%::&&XX&&XXXXXX&&XX..  oo$$",
"$$oo  ..&&XX&&XXXXXX&&XX&&  oo$$",
"$$oo  ..&&XX&&XXXXXX&&XX&&  oo$$",
"$$$$oo  &&....XX&&XX&&..  oo$$==",
"$$$$oo  &&....XX&&XX&&..  oo$$==",
"$$$$$$oo                ooOO$$$$",
"$$$$$$oo                ooOO$$$$",
"$$$$$$$$oooooooooooooooo$$$$$$$$",
"$$$$$$$$oooooooooooooooo$$$$$$$$",
"$$$$$$$$$$$$$$$$$$$$$$$$$$$$$$$$",
"$$$$$$$$$$$$$$$$$$$$$$$$$$$$$$$$"
};
