/* XPM */
static char *pearl1705575591[] = {
/* columns rows colors chars-per-pixel */
"32 32 22 1 ",
"  c #2E7257",
". c #2E7358",
"X c #2E7559",
"o c #307256",
"O c #327756",
"+ c #307559",
"@ c #317A58",
"# c #307B5E",
"$ c #37865A",
"% c #33805D",
"& c #34825C",
"* c #35835C",
"= c #36855C",
"- c #38885B",
"; c #2D3FAB",
": c #5B6EE1",
"> c #5B80E8",
", c #639BFF",
"< c #5AA2ED",
"1 c #22D3ED",
"2 c #58C3F2",
"3 c #CBDBFC",
/* pixels */
"######--########################",
"######--########################",
"########..##########**####oo**##",
"########..##########**####oo**##",
"####$$############  ########++##",
"####$$############  ########++##",
"##..########;;;;;;;;######**####",
"##..########;;;;;;;;######**####",
"##########;;::::::::;;##########",
"##########;;::::::::;;##########",
"########;;::>>::>>33::;;########",
"########;;::>>::>>33::;;########",
"####$$;;::>>,,<<::>>::::;;######",
"####$$;;::>>,,<<::>>::::;;######",
"######;;::,,2211<<::::::;;######",
"######;;::,,2211<<::::::;;######",
"##@@@@;;::,,222211<<>>::;;*%####",
"##@@@@;;::,,222211<<>>::;;%*####",
"##$$##;;::>>,,2222,,>>::;;##OO##",
"##$$##;;::>>,,2222,,>>::;;##OO##",
"########;;::>>,,,,>>::;;########",
"########;;::>>,,,,>>::;;########",
"####XX##OO;;::::::::;;##########",
"####XX##OO;;::::::::;;##########",
"############;;;;;;;;##########%%",
"############;;;;;;;;##########%%",
"##########################  ####",
"##########################  ####",
"############=$##################",
"############=$##################",
"################################",
"################################"
};
