/* XPM */
static char *_1705485968[] = {
/* columns rows colors chars-per-pixel */
"10 14 3 1 ",
"  c #884B3F",
". c #45283C",
"X c white",
/* pixels */
"..........",
"..........",
"..XXXXXX..",
"..XXXXXX..",
"..XX......",
"..XX......",
"..XXXXXX..",
"..XXXXXX..",
"......XX..",
"......XX..",
"..XXXXXX..",
"..XXXXXX..",
"..........",
".........."
};
