/* XPM */
static char *bottomleft_cwall1705485961[] = {
/* columns rows colors chars-per-pixel */
"32 32 8 1 ",
"  c #0D301D",
". c #224A29",
"X c #224A3E",
"o c #275832",
"O c #336046",
"+ c #307B5E",
"@ c #4A7C45",
"# c #72AE63",
/* pixels */
"XXOOXX  @@@@XXXXXXXXXXXXXXXXXXXX",
"XXOOXX  @@@@XXXXXXXXXXXXXXXXXXXX",
"  XXOOXXXXXXXXXXXXXXXXXXXXXXXXXX",
"  XXOOXXXXXXXXXXXXXXXXXXXXXXXXXX",
"@@  OOXXOOXXXXXXXXOOXXXXOOXXXXXX",
"@@  OOXXOOXXXXXXXXOOXXXXOOXXXXXX",
"##XX@@XXXXXXXXXXXXXXXXXXXXXXXXXX",
"##XX@@XXXXXXXXXXXXXXXXXXXXXXXXXX",
"XX##oo@@XXXXXXOOXXXXXXXXXXXXXXXX",
"XX##oo@@XXXXXXOOXXXXXXXXXXXXXXXX",
"XX  XXOOXXXXOOXXXXXXXXXXXXXXXXXX",
"XX  XXOOXXXXOOXXXXXXXXXXXXXXXXXX",
"XXOOXX@@XXXXXXXXXXXXXXXXXXXXXXXX",
"XXOOXX@@XXXXXXXXXXXXXXXXXXXXXXXX",
"XX@@@@XXOOXXXXXXXXXXXXXXXXXXXXXX",
"XX@@@@XXOOXXXXXXXXXXXXXXXXXXXXXX",
"XXXXOO@@XXOOXXXXXXXXXXXXXXXXXXXX",
"XXXXOO@@XXOOXXXXXXXXXXXXXXXXXXXX",
"##  ##XXOO..OOXXXXXXOOXXXXXXOOXX",
"##  ##XXOO..OOXXXXXXOOXXXXXXOOXX",
"XXXXOO@@ooXXXXOOXXXXXXXXOOXXXXOO",
"XXXXOO@@ooXXXXOOXXXXXXXXOOXXXXOO",
"OO@@@@OOXXOOXXXXXXXXXXOO@@OOXXOO",
"OO@@@@OOXXOOXXXXXXXXXXOO@@OOXXOO",
"  OOXXXXXXXXXX@@OO..OO@@..OOXXOO",
"  OOXXXXXXXXXX@@OO..OO@@..OOXXOO",
"++  XXOOXX@@XXXXXXOOXXXX..XXOOXX",
"++  XXOOXX@@XXXXXXOOXXXX..XXOOXX",
"@@OO  ##@@XXXX    @@  OOOO@@..  ",
"@@OO  ##@@XXXX    @@  OOOO@@..  ",
"++OO++@@XX    ++OO  ++..  ++  ++",
"++OO++@@XX    ++OO  ++..  ++  ++"
};
