/* XPM */
static char *grass1705485962[] = {
/* columns rows colors chars-per-pixel */
"32 32 15 1 ",
"  c #2E7257",
". c #2E7358",
"X c #2E755A",
"o c #307256",
"O c #327756",
"+ c #307559",
"@ c #317A58",
"# c #317A59",
"$ c #307B5E",
"% c #317D5D",
"& c #37865A",
"* c #33815C",
"= c #35835C",
"- c #36855C",
"; c #38885B",
/* pixels */
"$$$$$$;;$$$$$$$$$$$$$$$$$$$$$$$$",
"$$$$$$;;$$$$$$$$$$$$$$$$$$$$$$$$",
"$$$$$$$$..$$$$$$$$$$==$$$$oo==$$",
"$$$$$$$$..$$$$$$$$$$==$$$$oo==$$",
"$$$$&&$$$$$$$$$$$$  $$$$$$$$++$$",
"$$$$&&$$$$$$$$$$$$  $$$$$$$$++$$",
"$$..$$$$$$$$$$$$$$$$$$$$$$==$$$$",
"$$..$$$$$$$$$$$$$$$$$$$$$$==$$$$",
"$$$$$$$$$$$$$$$$$$==$$$$$$$$$$$$",
"$$$$$$$$$$$$$$$$$$==$$$$$$$$$$$$",
"$$$$$$$$$$$$$$$$$$$$=*$$$$$$$$$$",
"$$$$$$$$$$$$$$$$$$$$*=$$$$$$$$$$",
"$$$$&&$$$$$$$$%%**$$$$XX$$$$$$$$",
"$$$$&&$$$$$$$$%%**$$$$XX$$$$$$$$",
"$$$$$$  $$$$$$$$$$$$$$$$$$$$$$$$",
"$$$$$$  $$$$$$$$$$$$$$$$$$$$$$$$",
"$$@@@@$$$$XX$$$$##XX$$$$$$%=$$$$",
"$$@@@#$$$$XX$$$$##XX$$$$$$==$$$$",
"$$&&$$$$$$$$$$$$$$$$$$$$$$$$OO$$",
"$$&&$$$$$$$$$$$$$$$$$$$$$$$$OO$$",
"$$$$$$$$$$$$$$$$$$$$$$. $$$$$$$$",
"$$$$%%$$$$$$$$$$$$$$$$..$$$$$$$$",
"$$$$.X$$OO$$$$$$--$$*%%$$$$$$$$$",
"$$$$X.$$OO$$$$$$--$$%=$$$$$$$$$$",
"$$$$$$$$$$$$$$$$$$$$$$$$$$$$$$%=",
"$$$$$$$$$$$$$$$$$$$$$$$$$$$$$$=%",
"$$$$$$$$$$$$$$$$$$$$$$$$$$  $$$$",
"$$$$$$$$$$$$$$$$$$$$$$$$$$  $$$$",
"$$$$$$$$$$$$--$$$$$$$$$$$$$$$$$$",
"$$$$$$$$$$$$--$$$$$$$$$$$$$$$$$$",
"$$$$$$$$$$$$$$$$$$$$$$$$$$$$$$$$",
"$$$$$$$$$$$$$$$$$$$$$$$$$$$$$$$$"
};
