/* XPM */
static char *left_cwall1705485963[] = {
/* columns rows colors chars-per-pixel */
"32 32 7 1 ",
"  c #0D301D",
". c #224A3E",
"X c #2F5A40",
"o c #336046",
"O c #307B5E",
"+ c #4A7C45",
"@ c #72AE63",
/* pixels */
"OO..............................",
"OO..............................",
"oo@@  ..................oo......",
"oo@@  ..................oo......",
"++..............................",
"++..............................",
"@@++........................oo..",
"@@++........................oo..",
"..  ..................XX........",
"..  ..................XX........",
"++++..++..oo....................",
"++++..++..oo....................",
"  ++oo..........................",
"  ++oo..........................",
"oo@@............................",
"oo@@............................",
"OO..............................",
"OO..............................",
"++..oo..............oo..........",
"++..oo..............oo..........",
"  ++@@..........................",
"  ++@@..........................",
"++oooo..oo......................",
"++oooo..oo......................",
"OO++++oo........................",
"OO++++oo........................",
"..  ++......oo..................",
"..  ++......oo..................",
"++  oo..........................",
"++  oo..........................",
"OO@@oooooo......................",
"OO@@oooooo......................"
};
