/* XPM */
static char *left_wall1705485964[] = {
/* columns rows colors chars-per-pixel */
"32 32 11 1 ",
"  c #0D301D",
". c #224A3E",
"X c #2A5439",
"o c #2F5A3D",
"O c #335F3D",
"+ c #37663E",
"@ c #2F5A40",
"# c #336046",
"$ c #307B5E",
"% c #4A7C45",
"& c #72AE63",
/* pixels */
"$$&&  &&  $$  $$  $$%%  $$  %%  ",
"$$&&  &&  $$  $$  $$%%  $$  %%  ",
"%%..  %%##%%....%%%%..%%..  %%##",
"%%..  %%##%%....%%%%..%%..  %%##",
"&&%%..%%##..%%....%%%%%%..%%....",
"&&%%..%%##..%%....%%%%%%..%%....",
"..  ##oo..@@##@@%%%%##@@....##..",
"..  ##oo..@@##@@%%%%##@@....##..",
"%%%%XX%%..##..........##........",
"%%%%XX%%..##..........##........",
"  %%##....##......##............",
"  %%##....##......##............",
"##&&..##..##............##......",
"##&&..##..##............##......",
"$$%%..##....##..................",
"$$%%..##....##..................",
"%%..##....##%%......##..##......",
"%%..##....##%%......##..##......",
"%%%%&&........%%......##........",
"%%%%&&........%%......##........",
"%%####..##..%%####..............",
"%%####..##..%%####..............",
"%%%%%%##........................",
"%%%%%%##........................",
"..  %%&&..####....##..##......%%",
"..  %%&&..####....##..##......%%",
"%%  ##..%%%%@@##..##%%..%%..OO++",
"%%  ##..%%%%@@##..##%%..%%..OO++",
"$$&&######....%%&&  ........&&..",
"$$&&######....%%&&  ........&&..",
"$$$$$$  %%%%&&  %%..$$$$  $$..$$",
"$$$$$$  %%%%&&  %%..$$$$  $$..$$"
};
