/* XPM */
static char *mid_cwall1705485964[] = {
/* columns rows colors chars-per-pixel */
"32 32 2 1 ",
"  c #224A3E",
". c #336046",
/* pixels */
"                                ",
"                                ",
"    ..                      ..  ",
"    ..                      ..  ",
"  ..                            ",
"  ..                            ",
"                      ..        ",
"                      ..        ",
"                                ",
"                                ",
"              ..                ",
"              ..                ",
"                          ..    ",
"                          ..    ",
"      ..                        ",
"      ..                        ",
"                  ..            ",
"                  ..            ",
"                                ",
"                                ",
"  ..                            ",
"  ..                            ",
"                ..              ",
"                ..              ",
"                                ",
"                                ",
"    ..                  ..      ",
"    ..                  ..      ",
"                              ..",
"                              ..",
"..                              ",
"..                              "
};
