/* XPM */
static char *right_wall1705485965[] = {
/* columns rows colors chars-per-pixel */
"32 32 8 1 ",
"  c #0D301D",
". c #224A29",
"X c #224A3E",
"o c #275832",
"O c #336046",
"+ c #307B5E",
"@ c #4A7C45",
"# c #72AE63",
/* pixels */
"    ++XX++++  XX++##++++  @@##++",
"    ++XX++++  XX++##++++  @@##++",
"##..@@OO@@XX##oo@@    @@@@  @@++",
"##..@@OO@@XX##oo@@    @@@@  @@++",
"XXOOXXXX@@OOooXXOO@@##@@  OOXX@@",
"XXOOXXXX@@OOooXXOO@@##@@  OOXX@@",
"XXXXXXOOOOOOOOOOXXOOOOOOOOXX  ++",
"XXXXXXOOOOOOOOOOXXOOOOOOOOXX  ++",
"XXOOXXOOXXXXOOXXOOXXOO@@@@OOXX@@",
"XXOOXXOOXXXXOOXXOOXXOO@@@@OOXX@@",
"XXXXXXXXXXXXXXXXXXOOOOooOO  XX##",
"XXXXXXXXXXXXXXXXXXOOOOooOO  XX##",
"XXXXXXXXXXXXXXXXXXOOOOXX@@@@  ++",
"XXXXXXXXXXXXXXXXXXOOOOXX@@@@  ++",
"XXXXXXXXXXXXXXXXXXXXOOXXXXXX@@++",
"XXXXXXXXXXXXXXXXXXXXOOXXXXXX@@++",
"OOXXXXXXXXXXOOOOXXXXXXXXOO##XX  ",
"OOXXXXXXXXXXOOOOXXXXXXXXOO##XX  ",
"XXXXXXOOXXXXXXXXXXXXOOXXOOXX@@XX",
"XXXXXXOOXXXXXXXXXXXXOOXXOOXX@@XX",
"OOXXXXXXXXOOXXXXXXXXXXXX@@OOOO++",
"OOXXXXXXXXOOXXXXXXXXXXXX@@OOOO++",
"XXOOXXXXXXOOXXXXXXOOOOXX@@  ..  ",
"XXOOXXXXXXOOXXXXXXOOOOXX@@  ..  ",
"OOXXOO@@XXOOOOOOXX##XXOO##XX  ++",
"OOXXOO@@XXOOOOOOXX##XXOO##XX  ++",
"OO@@XXOO@@OO@@XX##@@XXXX..OOXX++",
"OO@@XXOO@@OO@@XX##@@XXXX..OOXX++",
"XX@@OOXXXXOO  @@XXXX  OO  ..##++",
"XX@@OOXXXXOO  @@XXXX  OO  ..##++",
"XX++  ##    ++++  @@++  @@  ++++",
"XX++  ##    ++++  @@++  @@  ++++"
};
