/* XPM */
static char *right_cwall1705485964[] = {
/* columns rows colors chars-per-pixel */
"32 32 8 1 ",
"  c #0D301D",
". c #224A29",
"X c #224A3E",
"o c #275832",
"O c #336046",
"+ c #307B5E",
"@ c #4A7C45",
"# c #72AE63",
/* pixels */
"XXXXXXXXXXXXXXXXOOXX@@OOXX@@##++",
"XXXXXXXXXXXXXXXXOOXX@@OOXX@@##++",
"XXXXXXXXXXOOXXXXXXXXXXXX@@  @@++",
"XXXXXXXXXXOOXXXXXXXXXXXX@@  @@++",
"XXXXXXXXXXXXXXXXXXXXXXOOXXXX  @@",
"XXXXXXXXXXXXXXXXXXXXXXOOXXXX  @@",
"XXXXXXXXXXXXXXXXXXXXOOXXXX  XX@@",
"XXXXXXXXXXXXXXXXXXXXOOXXXX  XX@@",
"XXXXXXXXXXOOXXXXXXXXXX@@XX  XX##",
"XXXXXXXXXXOOXXXXXXXXXX@@XX  XX##",
"XXXXOOXXXXXXXXXXXXXXXXooOO@@  ##",
"XXXXOOXXXXXXXXXXXXXXXXooOO@@  ##",
"XXXXXXXXXXXXXXXXXXXXXXXX@@XX@@++",
"XXXXXXXXXXXXXXXXXXXXXXXX@@XX@@++",
"XXXXXXXXXXXXXXXXXXXXXXXXXX##XX  ",
"XXXXXXXXXXXXXXXXXXXXXXXXXX##XX  ",
"XXXXXXXXXXOOXXXXXXXXXXXXOOXX@@XX",
"XXXXXXXXXXOOXXXXXXXXXXXXOOXX@@XX",
"XXXXXXXXXXXXXXXXXXXXOOXXOOOOOOXX",
"XXXXXXXXXXXXXXXXXXXXOOXXOOOOOOXX",
"XXXXXXXXXXXXXXXXXXXXXXXX@@  ..++",
"XXXXXXXXXXXXXXXXXXXXXXXX@@  ..++",
"XXXXXXXXXXXXXXXXXXXXXXXX@@  ..  ",
"XXXXXXXXXXXXXXXXXXXXXXXX@@  ..  ",
"XXXXXXXXXXXXXXOOXXXXXXOO##    ++",
"XXXXXXXXXXXXXXOOXXXXXXOO##    ++",
"XXXXXXXXXXXXXXXXXXXXXX......  ++",
"XXXXXXXXXXXXXXXXXXXXXX......  ++",
"XXXXXXXXXXXXXXXXXXXXXXXXXX@@##++",
"XXXXXXXXXXXXXXXXXXXXXXXXXX@@##++",
"XXXXOOXXXXXXXXXXXXXXXXXX@@  @@++",
"XXXXOOXXXXXXXXXXXXXXXXXX@@  @@++"
};
