/* XPM */
static char *single_wall1705485965[] = {
/* columns rows colors chars-per-pixel */
"32 32 11 1 ",
"  c #0D301D",
". c #224A29",
"X c #224A3E",
"o c #275832",
"O c #2A5439",
"+ c #2F5A3D",
"@ c #2F5A40",
"# c #336046",
"$ c #307B5E",
"% c #4A7C45",
"& c #72AE63",
/* pixels */
"$$$$%%$$%%&&$$$$  XX$$  $$$$$$$$",
"$$$$%%$$%%&&$$$$  XX$$  $$$$$$$$",
"&&%%XX  XXXX  %%XX%%##..  XX&&$$",
"&&%%XX  XXXX  %%XX%%##..  XX&&$$",
"%%  ##XX##  %%XX&&XX##  XX##..  ",
"%%  ##XX##  %%XX&&XX##  XX##..  ",
"  %%  ##%%##%%XX####%%%%&&..  %%",
"  %%  ##%%##%%XX####%%%%&&..  %%",
"$$%%%%##%%ooXXXXXXXXXXXX##XX##  ",
"$$%%%%##%%ooXXXXXXXXXXXX##XX##  ",
"$$  &&##########XX##XX##XXXX  $$",
"$$  &&##########XX##XX##XXXX  $$",
"&&  %%##XX####XXXXXXXX##&&%%XX%%",
"&&  %%##XX####XXXXXXXX##&&%%XX%%",
"$$%%##XX##XXXXXXXXXXXXXXXX&&XX  ",
"$$%%##XX##XXXXXXXXXXXXXXXX&&XX  ",
"XXooXX##XXXXXXXX##XXXXXX##XX%%$$",
"XXooXX##XXXXXXXX##XXXXXX##XX%%$$",
"  XX%%##XXXXXX##%%XX%%XX##@@XX&&",
"  XX%%##XXXXXX##%%XX%%XX##@@XX&&",
"$$%%XX@@######XX##XXXXXX##%%XX%%",
"$$%%XX@@######XX##XXXXXX##%%XX%%",
"  ####XXXXXXXXXXXXXX##XXXX%%##%%",
"  ####XXXXXXXXXXXXXX##XXXX%%##%%",
"&&%%%%++%%XX####XXXXXX##&&XX##  ",
"&&%%%%++%%XX####XXXXXX##&&XX##  ",
"    XX##OO##XXXX##&&##%%%%####$$",
"    XX##OO##XXXX##&&##%%%%####$$",
"&&XX%%  %%%%&&%%XX%%##%%    &&$$",
"&&XX%%  %%%%&&%%XX%%##%%    &&$$",
"$$%%&&XX%%  ##$$%%%%%%%%XX%%$$$$",
"$$%%&&XX%%  ##$$%%%%%%%%XX%%$$$$"
};
