/* XPM */
static char *topright_cwall1705485966[] = {
/* columns rows colors chars-per-pixel */
"32 32 8 1 ",
"  c #0D301D",
". c #224A29",
"X c #224A3E",
"o c #275832",
"O c #336046",
"+ c #307B5E",
"@ c #4A7C45",
"# c #72AE63",
/* pixels */
"    ++XX++++  XX++##++++  @@##++",
"    ++XX++++  XX++##++++  @@##++",
"##..@@OO@@XX##oo@@    @@@@  @@++",
"##..@@OO@@XX##oo@@    @@@@  @@++",
"XXOOXXXXXXOOooXXOO@@##@@XXXX  @@",
"XXOOXXXXXXOOooXXOO@@##@@XXXX  @@",
"XXXXXXXXOOXXXXXXXXXXXX@@XXXX  ++",
"XXXXXXXXOOXXXXXXXXXXXX@@XXXX  ++",
"XXXXXXOOXXXXOOXXOOXXXX@@@@  XX@@",
"XXXXXXOOXXXXOOXXOOXXXX@@@@  XX@@",
"XXXXXXXXXXXXXXXXXXOOXX@@@@OOXX##",
"XXXXXXXXXXXXXXXXXXOOXX@@@@OOXX##",
"XXXXXXXXXXOOXXXXXXXXOOXX@@@@OO++",
"XXXXXXXXXXOOXXXXXXXXOOXX@@@@OO++",
"XXXXXXOOXXXXXXXXXXXXOOXXXXXX@@OO",
"XXXXXXOOXXXXXXXXXXXXOOXXXXXX@@OO",
"OOXXXXXXXXXXXXXXXXOOXXOOXX@@XX++",
"OOXXXXXXXXXXXXXXXXOOXXOOXX@@XX++",
"XXXXXXXXXXXXOOXXXXXXXX@@OOOO@@  ",
"XXXXXXXXXXXXOOXXXXXXXX@@OOOO@@  ",
"XXXXXXXXXXXXXXXXXXOOOO@@  ..  ++",
"XXXXXXXXXXXXXXXXXXOOOO@@  ..  ++",
"OOXXXXXXXXXXXXXXXX@@XX##    XX++",
"OOXXXXXXXXXXXXXXXX@@XX##    XX++",
"XXOOXXXXXXXXXXXXXXXXXX....  ..XX",
"XXOOXXXXXXXXXXXXXXXXXX....  ..XX",
"XXXXXXOOXXXXXXXXXXXXOOXX@@##OO++",
"XXXXXXOOXXXXXXXXXXXXOOXX@@##OO++",
"XXXXXXXXXXXXOOXXXXXXXX@@  @@..##",
"XXXXXXXXXXXXOOXXXXXXXX@@  @@..##",
"XXXXXXXXXXXXXXXXXXXXOOXXXX  @@++",
"XXXXXXXXXXXXXXXXXXXXOOXXXX  @@++"
};
