/* XPM */
static char *vert_wall1705485967[] = {
/* columns rows colors chars-per-pixel */
"32 32 9 1 ",
"  c #0D301D",
". c #224A29",
"X c #224A3E",
"o c #275832",
"O c #305C3E",
"+ c #336046",
"@ c #307B5E",
"# c #4A7C45",
"$ c #72AE63",
/* pixels */
"XX##XXXXXXXX..XXXXXXXXXX++XX..XX",
"XX##XXXXXXXX..XXXXXXXXXX++XX..XX",
"  XX++XXXXXXXXXXXXXXXXXXXX##$$##",
"  XX++XXXXXXXXXXXXXXXXXXXX##$$##",
"##  ++XXXXXXXXXX++XXXXXX++..##oo",
"##  ++XXXXXXXXXX++XXXXXX++..##oo",
"$$XX##XXXXXXXXXXXX++XXXXXX++..  ",
"$$XX##XXXXXXXXXXXX++XXXXXX++..  ",
"XX$$oo##XXXXXX++XXXX++XX++XX##$$",
"XX$$oo##XXXXXX++XXXX++XX++XX##$$",
"XX  XX++XXXX++XXXXXXXXXX##XX##XX",
"XX  XX++XXXX++XXXXXXXXXX##XX##XX",
"@@++XX##XXXXXXXXXXXXXXXX##++XX@@",
"@@++XX##XXXXXXXXXXXXXXXX##++XX@@",
"++##++++XXXXXXXX++XX++++XX##++@@",
"++##++++XXXXXXXX++XX++++XX##++@@",
"@@  ++++XX++XX++XXXXXXXXXX####@@",
"@@  ++++XX++XX++XXXXXXXXXX####@@",
"##++##XXXXXXXXXXXXXX++XXXX##OO$$",
"##++##XXXXXXXXXXXXXX++XXXX##OO$$",
"$$++##++XX++XXXXXXXXXXXX++XX##$$",
"$$++##++XX++XXXXXXXXXXXX++XX##$$",
"@@  ##++XXXXXX++XXXXXXXX++XX++  ",
"@@  ##++XXXXXX++XXXXXXXX++XX++  ",
"  $$##++++XXXXXX++XXXX++XX##XX  ",
"  $$##++++XXXXXX++XXXX++XX##XX  ",
"++  XXXXXXXXXXXXXXXXXXXXXXXX##  ",
"++  XXXXXXXXXXXXXXXXXXXXXXXX##  ",
"@@##++++XXXXXXXXXXXXXXXXXX++++$$",
"@@##++++XXXXXXXXXXXXXXXXXX++++$$",
"$$++XXXXXXXXXXXXXXXXXXXX++XX####",
"$$++XXXXXXXXXXXXXXXXXXXX++XX####"
};
